<?xml version="1.0" standalone="no"?>
<!DOCTYPE svg PUBLIC "-//W3C//DTD SVG 20010904//EN"
 "http://www.w3.org/TR/2001/REC-SVG-20010904/DTD/svg10.dtd">
<svg version="1.0" xmlns="http://www.w3.org/2000/svg"
 width="100.000000pt" height="100.000000pt" viewBox="0 0 100.000000 100.000000"
 preserveAspectRatio="xMidYMid meet">
<metadata>
Created by potrace 1.15, written by Peter Selinger 2001-2017
</metadata>
<g transform="translate(0.000000,100.000000) scale(0.100000,-0.100000)"
fill="#000000" stroke="none">
<path d="M410 945 c-25 -122 10 -295 61 -295 61 0 39 246 -30 332 l-19 22 -12
-59z"/>
<path d="M616 949 c-50 -59 -90 -156 -94 -230 -3 -55 -1 -67 13 -73 22 -8 31
-2 60 44 37 59 56 139 53 221 l-3 73 -29 -35z"/>
<path d="M220 906 c0 -33 40 -140 70 -187 18 -27 48 -62 66 -76 101 -77 75 83
-33 198 -54 58 -103 89 -103 65z"/>
<path d="M723 868 c-11 -18 -34 -58 -51 -89 l-32 -56 21 -19 c33 -30 67 -95
79 -151 34 -156 -87 -316 -239 -317 -31 -1 -70 3 -88 7 -31 8 -31 8 -77 -76
-25 -46 -46 -89 -46 -95 0 -6 9 -14 21 -17 26 -9 49 12 80 71 30 56 51 54 61
-6 14 -83 26 -100 68 -100 34 0 38 3 44 31 3 17 6 51 6 76 0 49 24 71 43 37 6
-10 27 -36 48 -57 l38 -39 31 19 c28 16 31 21 25 53 -4 19 -16 52 -27 73 -28
55 -13 66 51 38 71 -30 96 -28 112 11 13 31 12 32 -39 79 -60 55 -67 79 -21
79 16 0 50 5 75 11 42 11 44 13 44 49 0 42 -20 56 -96 67 -25 3 -45 12 -49 21
-3 8 -4 16 -3 17 2 1 19 11 38 23 20 11 46 32 58 45 23 24 23 26 8 56 -19 36
-40 39 -110 15 -64 -22 -73 -10 -41 52 33 65 35 92 9 110 -20 14 -23 13 -41
-18z"/>
<path d="M80 741 c0 -7 22 -36 50 -65 95 -101 239 -150 240 -83 0 22 -87 97
-142 122 -69 31 -148 45 -148 26z"/>
<path d="M596 651 c-14 -26 -14 -30 0 -42 48 -40 59 -134 22 -189 -38 -56 -73
-75 -135 -75 -49 0 -56 -3 -69 -27 -16 -31 -11 -36 48 -44 69 -10 127 11 178
65 65 66 84 144 59 234 -10 37 -62 107 -80 107 -5 0 -15 -13 -23 -29z"/>
<path d="M57 554 c-59 -18 -52 -33 26 -62 102 -38 225 -36 254 4 42 58 -151
98 -280 58z"/>
<path d="M245 446 c-22 -7 -55 -21 -74 -30 -39 -21 -121 -94 -121 -109 0 -6
26 -8 73 -4 121 10 263 98 227 142 -15 18 -50 18 -105 1z"/>
<path d="M322 360 c-23 -16 -58 -51 -77 -77 -35 -49 -80 -151 -70 -161 11 -11
78 30 129 78 80 76 122 179 75 188 -8 1 -34 -11 -57 -28z"/>
</g>
</svg>
